# xmcd
#
# Track frame offsets:
#	182
#	24447
#	44160
#	64982
#	84822
#	107097
#	126295
#	145062
#	167357
#	188907
#	205747
#
# Disc length: 3080 seconds
#
# Revision: 3
# Processed by: cddbd v1.5.2PL0 Copyright (c) Steve Scherf et al.
# Submitted via: EasyCDDAExtractor 2010.6.0.0
#
DISCID=930c060b
DTITLE=Debelah
DYEAR=1994
DGENRE=Blues
TTITLE0=Free
TTITLE1=Don't Ask Me Why
TTITLE2=Mind Trippin'
TTITLE3=Swingin' Solo
TTITLE4=Win You Over
TTITLE5=We Had A Good Thing Goin'
TTITLE6=Floating
TTITLE7=Take It Easy
TTITLE8=Passion
TTITLE9=You Are The Joy
TTITLE10=Fire And Desire
EXTD=
EXTT0=
EXTT1=
EXTT2=
EXTT3=
EXTT4=
EXTT5=
EXTT6=
EXTT7=
EXTT8=
EXTT9=
EXTT10=
PLAYORDER=
